<?xml version="1.0" encoding="UTF-8"?>
<!DOCTYPE svg PUBLIC "-//W3C//DTD SVG 1.1//EN" "http://www.w3.org/Graphics/SVG/1.1/DTD/svg11.dtd">
<svg width="208mm" height="131mm" viewBox="0 0 20800 13100" version="1.1" xmlns="http://www.w3.org/2000/svg" stroke-width="28.222" stroke-linejoin="round" xml:space="preserve">
 <path fill="rgb(255,255,255)" stroke="none" d="M 10388,13069 L 0,13069 0,0 20777,0 20777,13069 10388,13069 Z"/>
 <path fill="none" stroke="rgb(179,179,179)" stroke-linejoin="round" d="M 10611,11427 L 2424,11427 2424,709 18798,709 18798,11427 10611,11427 Z"/>
 <path fill="none" stroke="rgb(179,179,179)" stroke-linejoin="round" d="M 18798,11426 L 2424,11426"/>
 <path fill="none" stroke="rgb(179,179,179)" stroke-linejoin="round" d="M 18798,8746 L 2424,8746"/>
 <path fill="none" stroke="rgb(179,179,179)" stroke-linejoin="round" d="M 18798,6067 L 2424,6067"/>
 <path fill="none" stroke="rgb(179,179,179)" stroke-linejoin="round" d="M 18798,3387 L 2424,3387"/>
 <path fill="none" stroke="rgb(179,179,179)" stroke-linejoin="round" d="M 18798,707 L 2424,707"/>
 <path fill="none" stroke="rgb(179,179,179)" stroke-linejoin="round" d="M 2424,11576 L 2424,11426"/>
 <path fill="none" stroke="rgb(179,179,179)" stroke-linejoin="round" d="M 2424,11576 L 2424,11426"/>
 <path fill="none" stroke="rgb(179,179,179)" stroke-linejoin="round" d="M 4470,11576 L 4470,11426"/>
 <path fill="none" stroke="rgb(179,179,179)" stroke-linejoin="round" d="M 4470,11576 L 4470,11426"/>
 <path fill="none" stroke="rgb(179,179,179)" stroke-linejoin="round" d="M 6517,11576 L 6517,11426"/>
 <path fill="none" stroke="rgb(179,179,179)" stroke-linejoin="round" d="M 6517,11576 L 6517,11426"/>
 <path fill="none" stroke="rgb(179,179,179)" stroke-linejoin="round" d="M 8564,11576 L 8564,11426"/>
 <path fill="none" stroke="rgb(179,179,179)" stroke-linejoin="round" d="M 8564,11576 L 8564,11426"/>
 <path fill="none" stroke="rgb(179,179,179)" stroke-linejoin="round" d="M 10610,11576 L 10610,11426"/>
 <path fill="none" stroke="rgb(179,179,179)" stroke-linejoin="round" d="M 10610,11576 L 10610,11426"/>
 <path fill="none" stroke="rgb(179,179,179)" stroke-linejoin="round" d="M 12657,11576 L 12657,11426"/>
 <path fill="none" stroke="rgb(179,179,179)" stroke-linejoin="round" d="M 12657,11576 L 12657,11426"/>
 <path fill="none" stroke="rgb(179,179,179)" stroke-linejoin="round" d="M 14704,11576 L 14704,11426"/>
 <path fill="none" stroke="rgb(179,179,179)" stroke-linejoin="round" d="M 14704,11576 L 14704,11426"/>
 <path fill="none" stroke="rgb(179,179,179)" stroke-linejoin="round" d="M 16751,11576 L 16751,11426"/>
 <path fill="none" stroke="rgb(179,179,179)" stroke-linejoin="round" d="M 16751,11576 L 16751,11426"/>
 <path fill="none" stroke="rgb(179,179,179)" stroke-linejoin="round" d="M 18798,11576 L 18798,11426"/>
 <path fill="none" stroke="rgb(179,179,179)" stroke-linejoin="round" d="M 18798,11576 L 18798,11426"/>
 <path fill="none" stroke="rgb(179,179,179)" stroke-linejoin="round" d="M 2424,11426 L 18798,11426"/>
 <path fill="none" stroke="rgb(179,179,179)" stroke-linejoin="round" d="M 2274,11426 L 2424,11426"/>
 <path fill="none" stroke="rgb(179,179,179)" stroke-linejoin="round" d="M 2274,11426 L 2424,11426"/>
 <path fill="none" stroke="rgb(179,179,179)" stroke-linejoin="round" d="M 2274,8746 L 2424,8746"/>
 <path fill="none" stroke="rgb(179,179,179)" stroke-linejoin="round" d="M 2274,8746 L 2424,8746"/>
 <path fill="none" stroke="rgb(179,179,179)" stroke-linejoin="round" d="M 2274,6067 L 2424,6067"/>
 <path fill="none" stroke="rgb(179,179,179)" stroke-linejoin="round" d="M 2274,6067 L 2424,6067"/>
 <path fill="none" stroke="rgb(179,179,179)" stroke-linejoin="round" d="M 2274,3387 L 2424,3387"/>
 <path fill="none" stroke="rgb(179,179,179)" stroke-linejoin="round" d="M 2274,3387 L 2424,3387"/>
 <path fill="none" stroke="rgb(179,179,179)" stroke-linejoin="round" d="M 2274,707 L 2424,707"/>
 <path fill="none" stroke="rgb(179,179,179)" stroke-linejoin="round" d="M 2274,707 L 2424,707"/>
 <path fill="none" stroke="rgb(179,179,179)" stroke-linejoin="round" d="M 2424,11426 L 2424,708"/>
 <path fill="none" stroke="rgb(179,179,179)" stroke-linejoin="round" d="M 18948,11425 L 18798,11425"/>
 <path fill="none" stroke="rgb(179,179,179)" stroke-linejoin="round" d="M 18948,11425 L 18798,11425"/>
 <path fill="none" stroke="rgb(179,179,179)" stroke-linejoin="round" d="M 18948,10234 L 18798,10234"/>
 <path fill="none" stroke="rgb(179,179,179)" stroke-linejoin="round" d="M 18948,10234 L 18798,10234"/>
 <path fill="none" stroke="rgb(179,179,179)" stroke-linejoin="round" d="M 18948,9043 L 18798,9043"/>
 <path fill="none" stroke="rgb(179,179,179)" stroke-linejoin="round" d="M 18948,9043 L 18798,9043"/>
 <path fill="none" stroke="rgb(179,179,179)" stroke-linejoin="round" d="M 18948,7852 L 18798,7852"/>
 <path fill="none" stroke="rgb(179,179,179)" stroke-linejoin="round" d="M 18948,7852 L 18798,7852"/>
 <path fill="none" stroke="rgb(179,179,179)" stroke-linejoin="round" d="M 18948,6661 L 18798,6661"/>
 <path fill="none" stroke="rgb(179,179,179)" stroke-linejoin="round" d="M 18948,6661 L 18798,6661"/>
 <path fill="none" stroke="rgb(179,179,179)" stroke-linejoin="round" d="M 18948,5471 L 18798,5471"/>
 <path fill="none" stroke="rgb(179,179,179)" stroke-linejoin="round" d="M 18948,5471 L 18798,5471"/>
 <path fill="none" stroke="rgb(179,179,179)" stroke-linejoin="round" d="M 18948,4281 L 18798,4281"/>
 <path fill="none" stroke="rgb(179,179,179)" stroke-linejoin="round" d="M 18948,4281 L 18798,4281"/>
 <path fill="none" stroke="rgb(179,179,179)" stroke-linejoin="round" d="M 18948,3089 L 18798,3089"/>
 <path fill="none" stroke="rgb(179,179,179)" stroke-linejoin="round" d="M 18948,3089 L 18798,3089"/>
 <path fill="none" stroke="rgb(179,179,179)" stroke-linejoin="round" d="M 18948,1898 L 18798,1898"/>
 <path fill="none" stroke="rgb(179,179,179)" stroke-linejoin="round" d="M 18948,1898 L 18798,1898"/>
 <path fill="none" stroke="rgb(179,179,179)" stroke-linejoin="round" d="M 18948,708 L 18798,708"/>
 <path fill="none" stroke="rgb(179,179,179)" stroke-linejoin="round" d="M 18948,708 L 18798,708"/>
 <path fill="none" stroke="rgb(179,179,179)" stroke-linejoin="round" d="M 18798,11425 L 18798,707"/>
 <path fill="rgb(255,66,14)" stroke="none" d="M 2312,1431 L 2437,1556 2562,1431 2437,1306 2312,1431 Z"/>
 <path fill="none" stroke="rgb(255,66,14)" stroke-linejoin="round" d="M 2312,1431 L 2437,1556 2562,1431 2437,1306 2312,1431 Z"/>
 <path fill="rgb(255,66,14)" stroke="none" d="M 2326,2238 L 2451,2363 2576,2238 2451,2113 2326,2238 Z"/>
 <path fill="none" stroke="rgb(255,66,14)" stroke-linejoin="round" d="M 2326,2238 L 2451,2363 2576,2238 2451,2113 2326,2238 Z"/>
 <path fill="rgb(255,66,14)" stroke="none" d="M 2357,3045 L 2482,3170 2607,3045 2482,2920 2357,3045 Z"/>
 <path fill="none" stroke="rgb(255,66,14)" stroke-linejoin="round" d="M 2357,3045 L 2482,3170 2607,3045 2482,2920 2357,3045 Z"/>
 <path fill="rgb(255,66,14)" stroke="none" d="M 2418,3851 L 2543,3976 2668,3851 2543,3726 2418,3851 Z"/>
 <path fill="none" stroke="rgb(255,66,14)" stroke-linejoin="round" d="M 2418,3851 L 2543,3976 2668,3851 2543,3726 2418,3851 Z"/>
 <path fill="rgb(255,66,14)" stroke="none" d="M 2600,4658 L 2725,4783 2850,4658 2725,4533 2600,4658 Z"/>
 <path fill="none" stroke="rgb(255,66,14)" stroke-linejoin="round" d="M 2600,4658 L 2725,4783 2850,4658 2725,4533 2600,4658 Z"/>
 <path fill="rgb(255,66,14)" stroke="none" d="M 2830,5465 L 2955,5590 3080,5465 2955,5340 2830,5465 Z"/>
 <path fill="none" stroke="rgb(255,66,14)" stroke-linejoin="round" d="M 2830,5465 L 2955,5590 3080,5465 2955,5340 2830,5465 Z"/>
 <path fill="rgb(255,66,14)" stroke="none" d="M 3276,6271 L 3401,6396 3526,6271 3401,6146 3276,6271 Z"/>
 <path fill="none" stroke="rgb(255,66,14)" stroke-linejoin="round" d="M 3276,6271 L 3401,6396 3526,6271 3401,6146 3276,6271 Z"/>
 <path fill="rgb(255,66,14)" stroke="none" d="M 4170,7077 L 4295,7202 4420,7077 4295,6952 4170,7077 Z"/>
 <path fill="none" stroke="rgb(255,66,14)" stroke-linejoin="round" d="M 4170,7077 L 4295,7202 4420,7077 4295,6952 4170,7077 Z"/>
 <path fill="rgb(255,66,14)" stroke="none" d="M 5989,7884 L 6114,8009 6239,7884 6114,7759 5989,7884 Z"/>
 <path fill="none" stroke="rgb(255,66,14)" stroke-linejoin="round" d="M 5989,7884 L 6114,8009 6239,7884 6114,7759 5989,7884 Z"/>
 <path fill="rgb(255,66,14)" stroke="none" d="M 8639,8691 L 8764,8816 8889,8691 8764,8566 8639,8691 Z"/>
 <path fill="none" stroke="rgb(255,66,14)" stroke-linejoin="round" d="M 8639,8691 L 8764,8816 8889,8691 8764,8566 8639,8691 Z"/>
 <path fill="rgb(255,66,14)" stroke="none" d="M 12384,9497 L 12509,9622 12634,9497 12509,9372 12384,9497 Z"/>
 <path fill="none" stroke="rgb(255,66,14)" stroke-linejoin="round" d="M 12384,9497 L 12509,9622 12634,9497 12509,9372 12384,9497 Z"/>
 <path fill="rgb(255,66,14)" stroke="none" d="M 16513,10304 L 16638,10429 16763,10304 16638,10179 16513,10304 Z"/>
 <path fill="none" stroke="rgb(255,66,14)" stroke-linejoin="round" d="M 16513,10304 L 16638,10429 16763,10304 16638,10179 16513,10304 Z"/>
 <path fill="rgb(0,69,134)" stroke="none" d="M 2312,6834 L 2312,7084 2562,7084 2562,6834 2312,6834 Z"/>
 <path fill="none" stroke="rgb(0,69,134)" stroke-linejoin="round" d="M 2312,6834 L 2312,7084 2562,7084 2562,6834 2312,6834 Z"/>
 <path fill="rgb(0,69,134)" stroke="none" d="M 2326,6834 L 2326,7084 2576,7084 2576,6834 2326,6834 Z"/>
 <path fill="none" stroke="rgb(0,69,134)" stroke-linejoin="round" d="M 2326,6834 L 2326,7084 2576,7084 2576,6834 2326,6834 Z"/>
 <path fill="rgb(0,69,134)" stroke="none" d="M 2357,7192 L 2357,7442 2607,7442 2607,7192 2357,7192 Z"/>
 <path fill="none" stroke="rgb(0,69,134)" stroke-linejoin="round" d="M 2357,7192 L 2357,7442 2607,7442 2607,7192 2357,7192 Z"/>
 <path fill="rgb(0,69,134)" stroke="none" d="M 2418,7013 L 2418,7263 2668,7263 2668,7013 2418,7013 Z"/>
 <path fill="none" stroke="rgb(0,69,134)" stroke-linejoin="round" d="M 2418,7013 L 2418,7263 2668,7263 2668,7013 2418,7013 Z"/>
 <path fill="rgb(0,69,134)" stroke="none" d="M 2600,6537 L 2600,6787 2850,6787 2850,6537 2600,6537 Z"/>
 <path fill="none" stroke="rgb(0,69,134)" stroke-linejoin="round" d="M 2600,6537 L 2600,6787 2850,6787 2850,6537 2600,6537 Z"/>
 <path fill="rgb(0,69,134)" stroke="none" d="M 2830,7013 L 2830,7263 3080,7263 3080,7013 2830,7013 Z"/>
 <path fill="none" stroke="rgb(0,69,134)" stroke-linejoin="round" d="M 2830,7013 L 2830,7263 3080,7263 3080,7013 2830,7013 Z"/>
 <path fill="rgb(0,69,134)" stroke="none" d="M 3276,7430 L 3276,7680 3526,7680 3526,7430 3276,7430 Z"/>
 <path fill="none" stroke="rgb(0,69,134)" stroke-linejoin="round" d="M 3276,7430 L 3276,7680 3526,7680 3526,7430 3276,7430 Z"/>
 <path fill="rgb(0,69,134)" stroke="none" d="M 4170,7251 L 4170,7501 4420,7501 4420,7251 4170,7251 Z"/>
 <path fill="none" stroke="rgb(0,69,134)" stroke-linejoin="round" d="M 4170,7251 L 4170,7501 4420,7501 4420,7251 4170,7251 Z"/>
 <path fill="rgb(0,69,134)" stroke="none" d="M 5989,5406 L 5989,5656 6239,5656 6239,5406 5989,5406 Z"/>
 <path fill="none" stroke="rgb(0,69,134)" stroke-linejoin="round" d="M 5989,5406 L 5989,5656 6239,5656 6239,5406 5989,5406 Z"/>
 <path fill="rgb(0,69,134)" stroke="none" d="M 8639,5168 L 8639,5418 8889,5418 8889,5168 8639,5168 Z"/>
 <path fill="none" stroke="rgb(0,69,134)" stroke-linejoin="round" d="M 8639,5168 L 8639,5418 8889,5418 8889,5168 8639,5168 Z"/>
 <path fill="rgb(0,69,134)" stroke="none" d="M 12384,2071 L 12384,2321 12634,2321 12634,2071 12384,2071 Z"/>
 <path fill="none" stroke="rgb(0,69,134)" stroke-linejoin="round" d="M 12384,2071 L 12384,2321 12634,2321 12634,2071 12384,2071 Z"/>
 <path fill="rgb(0,69,134)" stroke="none" d="M 16513,1238 L 16513,1488 16763,1488 16763,1238 16513,1238 Z"/>
 <path fill="none" stroke="rgb(0,69,134)" stroke-linejoin="round" d="M 16513,1238 L 16513,1488 16763,1488 16763,1238 16513,1238 Z"/>
 <text class="TextShape"><tspan class="TextParagraph" font-family="Liberation Sans, sans-serif" font-size="353px" font-weight="400"><tspan class="TextPosition" x="2331" y="11994"><tspan fill="rgb(0,0,0)" stroke="none">0</tspan></tspan></tspan></text>
 <text class="TextShape"><tspan class="TextParagraph" font-family="Liberation Sans, sans-serif" font-size="353px" font-weight="400"><tspan class="TextPosition" x="4232" y="11994"><tspan fill="rgb(0,0,0)" stroke="none">0.1</tspan></tspan></tspan></text>
 <text class="TextShape"><tspan class="TextParagraph" font-family="Liberation Sans, sans-serif" font-size="353px" font-weight="400"><tspan class="TextPosition" x="6279" y="11994"><tspan fill="rgb(0,0,0)" stroke="none">0.2</tspan></tspan></tspan></text>
 <text class="TextShape"><tspan class="TextParagraph" font-family="Liberation Sans, sans-serif" font-size="353px" font-weight="400"><tspan class="TextPosition" x="8326" y="11994"><tspan fill="rgb(0,0,0)" stroke="none">0.3</tspan></tspan></tspan></text>
 <text class="TextShape"><tspan class="TextParagraph" font-family="Liberation Sans, sans-serif" font-size="353px" font-weight="400"><tspan class="TextPosition" x="10373" y="11994"><tspan fill="rgb(0,0,0)" stroke="none">0.4</tspan></tspan></tspan></text>
 <text class="TextShape"><tspan class="TextParagraph" font-family="Liberation Sans, sans-serif" font-size="353px" font-weight="400"><tspan class="TextPosition" x="12420" y="11994"><tspan fill="rgb(0,0,0)" stroke="none">0.5</tspan></tspan></tspan></text>
 <text class="TextShape"><tspan class="TextParagraph" font-family="Liberation Sans, sans-serif" font-size="353px" font-weight="400"><tspan class="TextPosition" x="14467" y="11994"><tspan fill="rgb(0,0,0)" stroke="none">0.6</tspan></tspan></tspan></text>
 <text class="TextShape"><tspan class="TextParagraph" font-family="Liberation Sans, sans-serif" font-size="353px" font-weight="400"><tspan class="TextPosition" x="16514" y="11994"><tspan fill="rgb(0,0,0)" stroke="none">0.7</tspan></tspan></tspan></text>
 <text class="TextShape"><tspan class="TextParagraph" font-family="Liberation Sans, sans-serif" font-size="353px" font-weight="400"><tspan class="TextPosition" x="18561" y="11994"><tspan fill="rgb(0,0,0)" stroke="none">0.8</tspan></tspan></tspan></text>
 <text class="TextShape"><tspan class="TextParagraph" font-family="Liberation Sans, sans-serif" font-size="353px" font-weight="400"><tspan class="TextPosition" x="1063" y="11547"><tspan fill="rgb(0,0,0)" stroke="none">100000</tspan></tspan></tspan></text>
 <text class="TextShape"><tspan class="TextParagraph" font-family="Liberation Sans, sans-serif" font-size="353px" font-weight="400"><tspan class="TextPosition" x="878" y="8867"><tspan fill="rgb(0,0,0)" stroke="none">1000000</tspan></tspan></tspan></text>
 <text class="TextShape"><tspan class="TextParagraph" font-family="Liberation Sans, sans-serif" font-size="353px" font-weight="400"><tspan class="TextPosition" x="692" y="6187"><tspan fill="rgb(0,0,0)" stroke="none">10000000</tspan></tspan></tspan></text>
 <text class="TextShape"><tspan class="TextParagraph" font-family="Liberation Sans, sans-serif" font-size="353px" font-weight="400"><tspan class="TextPosition" x="507" y="3507"><tspan fill="rgb(0,0,0)" stroke="none">100000000</tspan></tspan></tspan></text>
 <text class="TextShape"><tspan class="TextParagraph" font-family="Liberation Sans, sans-serif" font-size="353px" font-weight="400"><tspan class="TextPosition" x="322" y="827"><tspan fill="rgb(0,0,0)" stroke="none">1000000000</tspan></tspan></tspan></text>
 <text class="TextShape"><tspan class="TextParagraph" font-family="Liberation Sans, sans-serif" font-size="353px" font-weight="400"><tspan class="TextPosition" x="19048" y="11546"><tspan fill="rgb(0,0,0)" stroke="none">0.27664</tspan></tspan></tspan></text>
 <text class="TextShape"><tspan class="TextParagraph" font-family="Liberation Sans, sans-serif" font-size="353px" font-weight="400"><tspan class="TextPosition" x="19048" y="10355"><tspan fill="rgb(0,0,0)" stroke="none">0.27666</tspan></tspan></tspan></text>
 <text class="TextShape"><tspan class="TextParagraph" font-family="Liberation Sans, sans-serif" font-size="353px" font-weight="400"><tspan class="TextPosition" x="19048" y="9164"><tspan fill="rgb(0,0,0)" stroke="none">0.27668</tspan></tspan></tspan></text>
 <text class="TextShape"><tspan class="TextParagraph" font-family="Liberation Sans, sans-serif" font-size="353px" font-weight="400"><tspan class="TextPosition" x="19048" y="7973"><tspan fill="rgb(0,0,0)" stroke="none">0.2767</tspan></tspan></tspan></text>
 <text class="TextShape"><tspan class="TextParagraph" font-family="Liberation Sans, sans-serif" font-size="353px" font-weight="400"><tspan class="TextPosition" x="19048" y="6782"><tspan fill="rgb(0,0,0)" stroke="none">0.27672</tspan></tspan></tspan></text>
 <text class="TextShape"><tspan class="TextParagraph" font-family="Liberation Sans, sans-serif" font-size="353px" font-weight="400"><tspan class="TextPosition" x="19048" y="5591"><tspan fill="rgb(0,0,0)" stroke="none">0.27674</tspan></tspan></tspan></text>
 <text class="TextShape"><tspan class="TextParagraph" font-family="Liberation Sans, sans-serif" font-size="353px" font-weight="400"><tspan class="TextPosition" x="19048" y="4401"><tspan fill="rgb(0,0,0)" stroke="none">0.27676</tspan></tspan></tspan></text>
 <text class="TextShape"><tspan class="TextParagraph" font-family="Liberation Sans, sans-serif" font-size="353px" font-weight="400"><tspan class="TextPosition" x="19048" y="3209"><tspan fill="rgb(0,0,0)" stroke="none">0.27678</tspan></tspan></tspan></text>
 <text class="TextShape"><tspan class="TextParagraph" font-family="Liberation Sans, sans-serif" font-size="353px" font-weight="400"><tspan class="TextPosition" x="19048" y="2018"><tspan fill="rgb(0,0,0)" stroke="none">0.2768</tspan></tspan></tspan></text>
 <text class="TextShape"><tspan class="TextParagraph" font-family="Liberation Sans, sans-serif" font-size="353px" font-weight="400"><tspan class="TextPosition" x="19048" y="828"><tspan fill="rgb(0,0,0)" stroke="none">0.27682</tspan></tspan></tspan></text>
 <path fill="rgb(0,69,134)" stroke="none" d="M 2967,10298 L 2967,10509 3178,10509 3178,10298 2967,10298 Z"/>
 <path fill="none" stroke="rgb(0,69,134)" stroke-linejoin="round" d="M 2967,10298 L 2967,10509 3178,10509 3178,10298 2967,10298 Z"/>
 <path fill="rgb(255,66,14)" stroke="none" d="M 2967,10906 L 3072,11012 3178,10906 3072,10801 2967,10906 Z"/>
 <path fill="none" stroke="rgb(255,66,14)" stroke-linejoin="round" d="M 2967,10906 L 3072,11012 3178,10906 3072,10801 2967,10906 Z"/>
 <text class="TextShape"><tspan class="TextParagraph" font-family="Liberation Sans, sans-serif" font-size="353px" font-weight="400"><tspan class="TextPosition" x="3278" y="10523"><tspan fill="rgb(0,0,0)" stroke="none">Logloss</tspan></tspan></tspan></text>
 <text class="TextShape"><tspan class="TextParagraph" font-family="Liberation Sans, sans-serif" font-size="353px" font-weight="400"><tspan class="TextPosition" x="3278" y="11026"><tspan fill="rgb(0,0,0)" stroke="none">Hash Space</tspan></tspan></tspan></text>
 <text class="TextShape"><tspan class="TextParagraph" font-family="Liberation Sans, sans-serif" font-size="318px" font-weight="400"><tspan class="TextPosition" x="9394" y="12722"><tspan fill="rgb(0,0,0)" stroke="none">% Collisions</tspan></tspan></tspan></text>
</svg>